<?xml version="1.0" standalone="no"?>
<!DOCTYPE svg PUBLIC "-//W3C//DTD SVG 20010904//EN"
 "http://www.w3.org/TR/2001/REC-SVG-20010904/DTD/svg10.dtd">
<svg version="1.0" xmlns="http://www.w3.org/2000/svg"
 width="1024.000000pt" height="1024.000000pt" viewBox="0 0 1024.000000 1024.000000"
 preserveAspectRatio="xMidYMid meet">

<g transform="translate(0.000000,1024.000000) scale(0.100000,-0.100000)"
fill="#000000" stroke="none">
<path d="M4905 9173 c-445 -39 -928 -232 -1265 -507 -423 -345 -706 -771 -834
-1256 -53 -202 -68 -312 -73 -550 -14 -623 129 -1028 625 -1779 186 -282 569
-843 982 -1441 210 -305 437 -634 503 -730 67 -96 136 -195 154 -220 58 -78
126 -99 190 -61 38 24 56 48 299 400 104 151 318 462 476 690 1163 1684 1277
1868 1419 2280 95 274 131 495 132 801 0 281 -29 469 -114 725 -115 348 -303
649 -574 920 -357 359 -797 595 -1295 695 -162 32 -455 48 -625 33z m486 -774
c541 -90 1022 -445 1249 -922 155 -324 195 -677 120 -1048 -43 -209 -134 -424
-261 -615 -89 -134 -280 -328 -419 -427 -174 -123 -399 -220 -626 -268 -96
-21 -136 -24 -329 -24 -240 0 -297 8 -489 66 -456 139 -833 462 -1032 884
-237 504 -208 1118 76 1580 126 206 338 418 545 545 169 104 357 179 550 219
134 28 136 28 326 30 127 1 196 -4 290 -20z"/>
<path d="M3057 3963 c-31 -12 -52 -38 -119 -137 -227 -339 -339 -707 -340
-1116 -1 -183 12 -290 53 -460 62 -253 167 -471 347 -723 64 -89 106 -117 177
-117 105 0 180 90 161 193 -3 18 -31 63 -64 103 -260 318 -376 693 -350 1131
18 295 117 579 287 828 70 102 76 114 76 162 0 116 -113 184 -228 136z m-440
-1275 c-3 -7 -5 -2 -5 12 0 14 2 19 5 13 2 -7 2 -19 0 -25z m10 -160 c-3 -8
-6 -5 -6 6 -1 11 2 17 5 13 3 -3 4 -12 1 -19z"/>
<path d="M7040 3958 c-56 -29 -96 -99 -86 -151 3 -18 41 -85 83 -148 130 -194
213 -385 265 -609 19 -83 22 -124 23 -325 0 -206 -2 -241 -23 -335 -57 -253
-165 -482 -319 -673 -87 -108 -99 -178 -43 -249 46 -59 150 -76 211 -35 46 31
182 224 262 371 219 408 290 882 198 1321 -49 229 -158 489 -286 680 -83 124
-91 133 -137 156 -49 25 -94 24 -148 -3z"/>
<path d="M3635 3436 c-44 -20 -66 -48 -139 -175 -75 -130 -117 -234 -139 -343
-64 -307 -4 -604 181 -889 60 -92 96 -113 182 -107 74 5 121 39 145 103 25 65
15 102 -60 215 -111 167 -147 277 -147 450 -1 162 46 310 141 449 63 93 74
119 68 169 -5 47 -27 84 -70 116 -33 25 -121 32 -162 12z m-278 -708 c-3 -8
-6 -5 -6 6 -1 11 2 17 5 13 3 -3 4 -12 1 -19z"/>
<path d="M6465 3436 c-70 -31 -112 -113 -94 -181 6 -19 38 -77 73 -128 101
-149 140 -272 139 -442 0 -171 -34 -278 -139 -435 -75 -113 -87 -143 -79 -190
20 -109 135 -170 240 -126 46 20 92 86 175 251 103 205 124 292 124 510 0 153
-3 180 -27 270 -46 172 -178 410 -256 462 -39 26 -108 30 -156 9z"/>
</g>
</svg>
